<svg xmlns="http://www.w3.org/2000/svg" width="1200" height="600" viewBox="0 0 1200 600">
  <!-- Background -->
  <rect width="1200" height="600" fill="#1e40af"/>
  
  <!-- Pattern overlay -->
  <rect width="1200" height="600" fill="url(#pattern)" opacity="0.1"/>
  
  <!-- Pattern definition -->
  <defs>
    <pattern id="pattern" x="0" y="0" width="40" height="40" patternUnits="userSpaceOnUse">
      <rect width="40" height="40" fill="none"/>
      <circle cx="20" cy="20" r="1" fill="white"/>
    </pattern>
  </defs>
  
  <!-- Main content container -->
  <rect x="80" y="120" width="1040" height="360" rx="20" fill="white"/>
  
  <!-- Large file icon -->
  <g transform="translate(120, 180) scale(6)" stroke="#1e40af" stroke-width="2" fill="none">
    <path d="M15 2H6a2 2 0 0 0-2 2v16a2 2 0 0 0 2 2h12a2 2 0 0 0 2-2V7Z"/>
    <path d="M14 2v4a2 2 0 0 0 2 2h4"/>
    <path d="M10 9H8"/>
    <path d="M16 13H8"/>
    <path d="M16 17H8"/>
  </g>
  
  <!-- Title -->
  <text x="320" y="220" fill="#1e293b" font-family="system-ui, -apple-system, sans-serif" font-size="44" font-weight="700">
    Planning Application Data
  </text>
  <text x="320" y="270" fill="#1e293b" font-family="system-ui, -apple-system, sans-serif" font-size="44" font-weight="700">
    Specification Tool
  </text>
  
  <!-- Description -->
  <text x="320" y="320" fill="#64748b" font-family="system-ui, -apple-system, sans-serif" font-size="22">
    Interactive tool for UK planning specifications
  </text>
  
  <!-- Key stats -->
  <g transform="translate(320, 360)">
    <text x="0" y="0" fill="#1e40af" font-family="system-ui" font-size="18" font-weight="600">
      18+ Applications • 50+ Modules • 200+ Fields • 100+ Examples
    </text>
  </g>
  
  <!-- Footer -->
  <text x="120" y="520" fill="white" font-family="system-ui, -apple-system, sans-serif" font-size="20" opacity="0.9">
    UK Government Digital Land Platform
  </text>
</svg>